HIERARCHY
ROOT Hips
{
 OFFSET 0.000000 0.000000 0.000000
 CHANNELS 6 Xposition Yposition Zposition Yrotation Xrotation Zrotation
 JOINT Chest
 {
  OFFSET 0.000000 9.585900 0.002600
  CHANNELS 3 Yrotation Xrotation Zrotation
  JOINT Chest2
  {
   OFFSET 0.000000 9.601200 -0.005300
   CHANNELS 3 Yrotation Xrotation Zrotation
   JOINT Chest3
   {
    OFFSET 0.000000 9.561800 0.000000
    CHANNELS 3 Yrotation Xrotation Zrotation
    JOINT Chest4
    {
     OFFSET 0.000000 9.552100 0.000000
     CHANNELS 3 Yrotation Xrotation Zrotation
     JOINT Neck
     {
      OFFSET 0.000000 14.453000 0.000000
      CHANNELS 3 Yrotation Xrotation Zrotation
      JOINT Head
      {
       OFFSET 0.000000 8.936500 -0.011300
       CHANNELS 3 Yrotation Xrotation Zrotation
       End Site
       {
        OFFSET 0.000000 17.073600 -0.006000
       }
      }
     }
     JOINT RightCollar
     {
      OFFSET -2.921100 9.558500 0.000000
      CHANNELS 3 Yrotation Xrotation Zrotation
      JOINT RightShoulder
      {
       OFFSET -13.519700 0.000000 0.000000
       CHANNELS 3 Yrotation Xrotation Zrotation
       JOINT RightElbow
       {
        OFFSET 0.000000 -29.696600 0.000000
        CHANNELS 3 Yrotation Xrotation Zrotation
        JOINT RightWrist
        {
         OFFSET 0.000000 -24.004700 0.000000
         CHANNELS 3 Yrotation Xrotation Zrotation
         End Site
         {
          OFFSET 0.000000 -17.728500 0.000000
         }
        }
       }
      }
     }
     JOINT LeftCollar
     {
      OFFSET 2.921100 9.558500 0.000000
      CHANNELS 3 Yrotation Xrotation Zrotation
      JOINT LeftShoulder
      {
       OFFSET 13.519700 0.000000 0.000000
       CHANNELS 3 Yrotation Xrotation Zrotation
       JOINT LeftElbow
       {
        OFFSET 0.000000 -29.696600 0.000000
        CHANNELS 3 Yrotation Xrotation Zrotation
        JOINT LeftWrist
        {
         OFFSET 0.000000 -24.004700 0.000000
         CHANNELS 3 Yrotation Xrotation Zrotation
         End Site
         {
          OFFSET 0.000000 -17.728500 0.000000
         }
        }
       }
      }
     }
    }
   }
  }
 }
 JOINT RightHip
 {
  OFFSET -7.771700 -0.012900 -0.001300
  CHANNELS 3 Yrotation Xrotation Zrotation
  JOINT RightKnee
  {
   OFFSET 0.000000 -40.869800 0.001200
   CHANNELS 3 Yrotation Xrotation Zrotation
   JOINT RightAnkle
   {
    OFFSET 0.000000 -39.717900 0.002100
    CHANNELS 3 Yrotation Xrotation Zrotation
    JOINT RightToe
    {
     OFFSET 0.000000 -4.965400 11.033500
     CHANNELS 3 Yrotation Xrotation Zrotation
     End Site
     {
      OFFSET 0.000000 -1.423100 5.872300
     }
    }
   }
  }
 }
 JOINT LeftHip
 {
  OFFSET 7.771700 -0.012900 -0.001300
  CHANNELS 3 Yrotation Xrotation Zrotation
  JOINT LeftKnee
  {
   OFFSET 0.000000 -40.869800 0.001200
   CHANNELS 3 Yrotation Xrotation Zrotation
   JOINT LeftAnkle
   {
    OFFSET 0.000000 -39.717900 0.002100
    CHANNELS 3 Yrotation Xrotation Zrotation
    JOINT LeftToe
    {
     OFFSET 0.000000 -4.965400 11.033500
     CHANNELS 3 Yrotation Xrotation Zrotation
     End Site
     {
      OFFSET 0.000000 -1.423100 5.872300
     }
    }
   }
  }
 }
}
MOTION
Frames: 9
Frame Time: 0.008333
0.000000 85.388000 0.000000 0.000000 -5.767877 0.000000 0.000000 11.653817 0.000000 0.000000 -5.885947 0.000000 0.000000 -0.000000 0.000000 0.000000 -0.000000 0.000000 0.000000 12.528835 0.000000 0.000000 0.711642 0.000000 0.000000 -0.000000 0.000000 0.000000 0.000000 -90.000000 0.000000 -2.309062 0.000000 0.000000 2.309062 0.000000 0.000000 -0.000000 0.000000 0.000000 -0.000000 90.000000 0.000000 -2.309062 0.000000 0.000000 2.309062 0.000000 0.000000 8.520406 0.000000 0.000000 1.905762 0.000000 -0.000000 -4.658285 0.000000 0.000000 -0.000000 0.000000 0.000000 8.520406 0.000000 0.000000 1.905762 0.000000 -0.000000 -4.658285 0.000000 0.000000 -0.000000 0.000000
-31.917144 51.981543 26.832171 177.161677 -30.664085 0.645283 -1.816113 13.322360 -0.834673 -0.148891 1.100830 -0.009827 -0.243669 1.832810 0.005549 -1.631770 12.107501 -0.184409 -11.588584 18.747318 -2.713563 -12.272967 -5.266417 -0.335642 5.616505 12.407426 9.943663 7.349595 -9.596942 -52.439798 135.863559 -42.521319 178.001095 -5.824948 -3.070748 9.521596 -2.889358 14.182090 -14.227938 -2.389217 -4.528034 46.736547 -168.146670 -40.251412 -151.022286 27.522277 -14.227540 -13.422829 -9.648812 -52.054061 2.645229 -52.478119 82.406462 -60.806649 -3.587683 -5.559271 5.535942 0.228792 -0.698929 0.152083 7.264292 -49.530275 -5.029628 43.016721 84.322876 49.773294 -1.073657 -13.152805 -1.116431 0.216095 0.557170 0.094599
-31.921807 51.981031 26.827708 177.213400 -30.679073 0.653681 -1.864858 13.323613 -0.861022 -0.147089 1.098931 -0.009743 -0.247622 1.831014 0.005314 -1.637531 12.074502 -0.177379 -11.673478 18.740452 -2.729327 -12.348933 -5.273349 -0.340774 5.621299 12.441446 9.946580 7.303234 -9.582826 -52.289690 135.713643 -42.476756 178.138582 -5.906563 -3.233580 10.068276 -2.879478 14.224739 -14.252589 -2.385990 -4.527884 46.707819 -168.005299 -40.310337 -151.108318 27.498478 -14.202289 -13.369919 -9.636526 -52.045791 2.586909 -52.590040 82.413730 -60.929700 -3.594002 -5.568445 5.537947 0.229974 -0.696893 0.155191 7.262851 -49.511137 -5.085172 42.982651 84.319321 49.738872 -1.077335 -13.145616 -1.114645 0.218693 0.554869 0.097561
-31.923784 51.979859 26.823744 177.244355 -30.688347 0.659356 -1.894986 13.320131 -0.874284 -0.147407 1.084614 -0.001103 -0.250258 1.841884 -0.003588 -1.695115 12.015495 -0.161019 -11.747802 18.751623 -2.776069 -12.443381 -5.286552 -0.349843 5.642380 12.479337 9.949401 7.290053 -9.538591 -52.152563 135.571206 -42.424902 178.275970 -5.976510 -3.371657 10.628057 -2.823116 14.291571 -14.301512 -2.390747 -4.527678 46.682064 -167.940885 -40.328891 -151.164793 27.413340 -14.202750 -13.309251 -9.602432 -52.043690 2.547052 -52.784485 82.408807 -61.123419 -3.612090 -5.571833 5.531519 0.241142 -0.694326 0.154995 7.278031 -49.499305 -5.129309 42.940148 84.319157 49.705643 -1.075530 -13.138583 -1.114172 0.217265 0.550935 0.099617
-31.925374 51.978589 26.819664 177.276153 -30.695939 0.665949 -1.952052 13.284050 -0.867989 -0.130507 1.102495 -0.017290 -0.284006 1.813289 0.012575 -1.736213 12.018901 -0.181449 -11.843601 18.733374 -2.820264 -12.558300 -5.307370 -0.366524 5.679036 12.507663 9.932402 7.279961 -9.517644 -51.984693 135.466007 -42.324577 178.423266 -6.025621 -3.430282 11.162299 -2.741451 14.326097 -14.349228 -2.399222 -4.519799 46.652610 -167.807217 -40.375643 -151.245736 27.403128 -14.205197 -13.285504 -9.586837 -52.042378 2.511820 -52.924426 82.410954 -61.269973 -3.621881 -5.578454 5.537324 0.245634 -0.695243 0.151228 7.282577 -49.489629 -5.161510 42.896393 84.320532 49.658199 -1.078720 -13.134040 -1.108826 0.217086 0.549685 0.101586
-31.925791 51.977322 26.815727 177.312603 -30.700387 0.667239 -1.999320 13.277577 -0.882314 -0.140414 1.089549 -0.011796 -0.303827 1.812506 0.017578 -1.790794 12.003982 -0.186165 -11.967855 18.697025 -2.872664 -12.695850 -5.337169 -0.396996 5.719263 12.525947 9.906624 7.285667 -9.503368 -51.799084 135.357425 -42.273658 178.549509 -6.104427 -3.481275 11.730065 -2.646860 14.355646 -14.402260 -2.437325 -4.552787 46.575253 -167.601787 -40.461965 -151.428218 27.394914 -14.204158 -13.244472 -9.578325 -52.043905 2.483711 -53.069789 82.412429 -61.419678 -3.638769 -5.579848 5.534672 0.259073 -0.700719 0.155690 7.282220 -49.482746 -5.188491 42.815963 84.322956 49.575575 -1.084401 -13.133487 -1.103082 0.219975 0.553617 0.102781
-31.924698 51.975308 26.813565 177.340985 -30.690068 0.667172 -2.040324 13.257280 -0.889363 -0.158285 1.078494 -0.001344 -0.328235 1.811097 0.018527 -1.858204 11.986926 -0.191086 -12.116902 18.650271 -2.945456 -12.858933 -5.376571 -0.444648 5.800298 12.556320 9.866660 7.280117 -9.511688 -51.590926 135.277949 -42.217149 178.675922 -6.185007 -3.453111 12.269205 -2.534286 14.403707 -14.456578 -2.484460 -4.622106 46.496782 -167.379929 -40.570757 -151.636861 27.356829 -14.190148 -13.156256 -9.576689 -52.058567 2.468726 -53.179698 82.410442 -61.531244 -3.650787 -5.578553 5.528596 0.272380 -0.704223 0.159293 7.284278 -49.489875 -5.209663 42.740980 84.321087 49.500210 -1.092384 -13.136777 -1.099695 0.221610 0.562181 0.104406
-31.924443 51.973288 26.812143 177.377805 -30.671081 0.670832 -2.120413 13.221547 -0.901619 -0.191237 1.068129 0.011174 -0.318166 1.816868 0.010088 -1.937441 11.968799 -0.197458 -12.293027 18.594345 -3.039707 -13.050202 -5.423910 -0.510366 5.829246 12.567832 9.813997 7.344305 -9.494126 -51.371291 135.221719 -42.124602 178.827692 -6.250962 -3.301769 12.738420 -2.399143 14.462938 -14.517487 -2.551198 -4.710204 46.417222 -167.080146 -40.719537 -151.905713 27.295356 -14.157987 -13.012582 -9.579057 -52.082278 2.441394 -53.265968 82.412953 -61.621436 -3.652098 -5.582222 5.527988 0.271597 -0.707201 0.161875 7.289870 -49.504100 -5.242201 42.575010 84.319223 49.331750 -1.097474 -13.132535 -1.099141 0.222852 0.569657 0.110548
-31.926744 51.975178 26.804958 177.442132 -30.687340 0.678935 -2.272222 13.212819 -0.919260 -0.134667 1.081369 -0.021422 -0.359500 1.808619 0.024744 -2.024810 11.950718 -0.205987 -12.495459 18.533538 -3.155330 -13.268967 -5.474317 -0.594410 5.844838 12.577967 9.754337 7.433429 -9.476856 -51.136151 135.136365 -41.984449 179.029825 -6.318187 -3.004340 13.144673 -2.262857 14.546467 -14.593638 -2.612386 -4.832623 46.331503 -166.663531 -40.901004 -152.273086 27.190678 -14.087311 -12.802827 -9.575015 -52.074759 2.377342 -53.436194 82.414355 -61.798489 -3.676033 -5.552335 5.523333 0.298665 -0.749229 0.174980 7.284936 -49.479968 -5.294636 42.474895 84.320625 49.230026 -1.132036 -13.148344 -1.103295 0.254833 0.588827 0.125066
